/* XPM */
static char * stick_active_xpm[] = {
"24 24 3 1",
"       c None",
".      c blue",
"@      s active_color_2",
"........................",
"........................",
"........................",
"........................",
"........................",
"........................",
"........................",
"........................",
"@@@@@@@@@@....@@@@@@@@@@",
"@@@@@@@@@@....@@@@@@@@@@",
"@@@@@@@@@@....@@@@@@@@@@",
"@@@@@@@@@@....@@@@@@@@@@",
"@@@@@@@@@@....@@@@@@@@@@",
"@@@@@@@@@@....@@@@@@@@@@",
"@@@@@@@@@@....@@@@@@@@@@",
"@@@@@@@@@@....@@@@@@@@@@",
"@@@@@@@@@@....@@@@@@@@@@",
"@@@@@@@@@@....@@@@@@@@@@",
"@@@@@@@@@@....@@@@@@@@@@",
"@@@@@@@@@@....@@@@@@@@@@",
"@@@@@@@@@@....@@@@@@@@@@",
"@@@@@@@@@@....@@@@@@@@@@",
"@@@@@@@@@@....@@@@@@@@@@",
"@@@@@@@@@@....@@@@@@@@@@"};
