/* XPM */
static char * title_inactive_xpm[] = {
"8 32 3 1",
"       c None",
".      s inactive_color_2",
"@      s inactive_border_color",
"@@@@@@@@",
"@@@@@@@@",
"@@@@@@@@",
"@@@@@@@@",
"........",
"........",
"........",
"........",
"........",
"........",
"........",
"........",
"........",
"........",
"........",
"........",
"........",
"........",
"........",
"........",
"........",
"........",
"........",
"........",
"........",
"........",
"........",
"........",
"@@@@@@@@",
"@@@@@@@@",
"@@@@@@@@",
"@@@@@@@@"};
