/* XPM */
static char * close_inactive_xpm[] = {
"56 24 3 1",
"       c None",
".      s inactive_color_2",
"@      s inactive_border_color",
"....@@@@@@@@@@@@@@@@@@@@@@@@@@@@@@@@@@@@@@@@@@@@@@@@....",
"....@@@@@@@@@@@@@@@@@@@@@@@@@@@@@@@@@@@@@@@@@@@@@@@@....",
"........................................................",
"........................................................",
"........................................................",
"........................................................",
"........................................................",
"........................................................",
"........................................................",
"........................................................",
"........................................................",
"........................................................",
"........................................................",
"........................................................",
"........................................................",
"........................................................",
"........................................................",
"........................................................",
"........................................................",
"........................................................",
"........................................................",
"........................................................",
"....@@@@@@@@@@@@@@@@@@@@@@@@@@@@@@@@@@@@@@@@@@@@@@@@....",
"....@@@@@@@@@@@@@@@@@@@@@@@@@@@@@@@@@@@@@@@@@@@@@@@@...."};
