/* XPM */
static char * menu_active_xpm[] = {
"24 24 3 1",
"       c None",
".      s active_color_2",
"@      s active_border_color",
"........................",
"........................",
"........................",
"........................",
"....@@@@@@@@@@@@@@@@....",
"....@@@@@@@@@@@@@@@@....",
"....@@@@@@@@@@@@@@@@....",
"....@@@@@@@@@@@@@@@@....",
"........................",
"........................",
"....@@@@@@@@@@@@@@@@....",
"....@@@@@@@@@@@@@@@@....",
"....@@@@@@@@@@@@@@@@....",
"....@@@@@@@@@@@@@@@@....",
"........................",
"........................",
"....@@@@@@@@@@@@@@@@....",
"....@@@@@@@@@@@@@@@@....",
"....@@@@@@@@@@@@@@@@....",
"....@@@@@@@@@@@@@@@@....",
"........................",
"........................",
"........................",
"........................"};
