/* XPM */
static char * stick_inactive_xpm[] = {
"24 24 3 1",
"       c None",
".      s inactive_color_2",
"@      s inactive_border_color",
"....@@@@@@@@@@@@@@@@....",
"....@@@@@@@@@@@@@@@@....",
"........................",
"........................",
"........................",
"........................",
"........................",
"........................",
"........................",
"........................",
"........................",
"........................",
"........................",
"........................",
"........................",
"........................",
"........................",
"........................",
"........................",
"........................",
"........................",
"........................",
"....@@@@@@@@@@@@@@@@....",
"....@@@@@@@@@@@@@@@@...."};
