/* XPM */
static char * title_active_xpm[] = {
"8 32 3 1",
"       c None",
".      s active_color_2",
"@      s active_border_color",
"@@@@@@@@",
"@@@@@@@@",
"@@@@@@@@",
"@@@@@@@@",
"........",
"........",
"........",
"........",
"........",
"........",
"........",
"........",
"........",
"........",
"........",
"........",
"........",
"........",
"........",
"........",
"........",
"........",
"........",
"........",
"........",
"........",
"........",
"........",
"@@@@@@@@",
"@@@@@@@@",
"@@@@@@@@",
"@@@@@@@@"};
